<svg width="25" height="25" viewBox="0 0 25 25" fill="none" xmlns="http://www.w3.org/2000/svg">
<g clip-path="url(#clip0_1_3149)">
<path d="M24.266 12.7764C24.266 11.9607 24.1999 11.1406 24.0588 10.3381H12.74V14.9591H19.2217C18.9528 16.4494 18.0885 17.7678 16.823 18.6056V21.6039H20.69C22.9608 19.5139 24.266 16.4274 24.266 12.7764Z" fill="#4285F4"/>
<path d="M12.74 24.5008C15.9764 24.5008 18.7058 23.4382 20.6944 21.6039L16.8274 18.6055C15.7516 19.3375 14.3626 19.752 12.7444 19.752C9.61376 19.752 6.95934 17.6399 6.00693 14.8003H2.01648V17.8912C4.05359 21.9434 8.20278 24.5008 12.74 24.5008Z" fill="#34A853"/>
<path d="M6.00253 14.8003C5.49987 13.3099 5.49987 11.6961 6.00253 10.2057V7.11481H2.01649C0.31449 10.5056 0.31449 14.5004 2.01649 17.8912L6.00253 14.8003Z" fill="#FBBC04"/>
<path d="M12.74 5.24966C14.4508 5.2232 16.1043 5.86697 17.3433 7.04867L20.7694 3.62262C18.6 1.5855 15.7207 0.465534 12.74 0.500809C8.20277 0.500809 4.05359 3.05822 2.01648 7.11481L6.00252 10.2058C6.95052 7.36173 9.60935 5.24966 12.74 5.24966Z" fill="#EA4335"/>
</g>
<defs>
<clipPath id="clip0_1_3149">
<rect width="24" height="24" fill="white" transform="translate(0.5 0.5)"/>
</clipPath>
</defs>
</svg>